<svg width="37" height="48" viewBox="0 0 37 48" fill="none" xmlns="http://www.w3.org/2000/svg">
<path d="M3.802 43.107C3.802 43.107 4.82223 48.378 11.195 47.0287L12.2838 43.5007L10.4496 40.8187L5.37359 38.5672L3.80479 43.107" fill="#34484C"/>
<path d="M24.114 33.228C24.114 35.097 23.4015 35.5883 21.5997 36.612L6.20709 45.3548C5.87671 45.3548 5.54957 45.2672 5.24434 45.0971C4.93912 44.927 4.6618 44.6777 4.42821 44.3633C4.19462 44.049 4.00935 43.6759 3.88297 43.2652C3.75659 42.8546 3.69158 42.4145 3.69165 41.97V12.8775C3.69165 11.007 4.50895 10.3845 6.20709 9.49275L21.5997 0.75C21.9299 0.75 22.257 0.837541 22.5621 1.00762C22.8672 1.1777 23.1445 1.42699 23.378 1.74124C23.6114 2.05549 23.7966 2.42856 23.9229 2.83911C24.0492 3.24967 24.1141 3.68968 24.114 4.134V33.234" fill="#085B50"/>
<path d="M5.09089 44.9986C5.09089 44.9986 10.8593 47.2261 11.1955 47.0341C11.5328 46.8428 10.9809 43.6688 10.9809 43.6688L8.89527 40.6441L6.95182 40.5226L6.61008 41.1751L5.09033 44.9986" fill="#34484C"/>
<path d="M21.2372 2.75998L4.16211 12.4095L4.96268 18.597L7.50488 18.9367L15.9861 17.1L21.2601 13.3822L25.1431 6.22948C24.2946 4.18198 23.0491 2.91523 21.2372 2.75848" fill="#F4F5F5"/>
<path d="M8.6864 14.5501C8.6864 14.0063 8.75665 13.5736 8.89546 13.2046C7.14714 12.9856 5.49583 12.3046 4.2933 10.8458C3.89413 11.3408 3.69678 11.9558 3.69678 12.8708V41.9641C3.69693 42.8616 3.96197 43.7223 4.43366 44.357C4.90535 44.9917 5.54508 45.3484 6.21222 45.3488L8.69699 43.9366C8.68975 43.8389 8.68603 43.7407 8.68584 43.6426V14.5501H8.6864Z" fill="#2D6A4F"/>
<path d="M29.5476 36.0952C29.5476 37.9642 28.8356 38.4555 27.0321 39.4792L11.1958 47.0317C10.5288 47.0315 9.88908 46.6749 9.41747 46.0403C8.94585 45.4057 8.68091 44.5451 8.68091 43.6477V14.5552C8.68091 12.684 9.4982 12.0622 11.1958 11.169L27.0321 3.61572C27.3625 3.61553 27.6897 3.70292 27.9949 3.87291C28.3002 4.04291 28.5775 4.29216 28.8111 4.60643C29.0448 4.92071 29.23 5.29383 29.3564 5.70449C29.4828 6.11514 29.5477 6.55527 29.5476 6.99972V36.0997" fill="#40916C"/>
<path d="M22.9917 12.495C23.0079 12.5511 23.0156 12.6109 23.0146 12.6711C23.0135 12.7312 23.0036 12.7904 22.9855 12.8454C22.9674 12.9004 22.9414 12.95 22.9089 12.9915C22.8765 13.0329 22.8383 13.0653 22.7966 13.0868L14.3727 17.4585C14.3312 17.4803 14.2868 17.4907 14.2422 17.4892C14.1975 17.4877 14.1536 17.4743 14.1129 17.4497C14.0721 17.4251 14.0355 17.3899 14.0049 17.3461C13.9744 17.3023 13.9507 17.2508 13.9351 17.1945C13.9184 17.1388 13.9102 17.0793 13.9109 17.0192C13.9116 16.9592 13.9213 16.9 13.9392 16.8451C13.9572 16.7902 13.9832 16.7406 14.0156 16.6994C14.048 16.6582 14.0862 16.6261 14.128 16.605L22.5507 12.2333C22.7274 12.1433 22.9242 12.2603 22.9911 12.4958" fill="#78111F"/>
<path d="M22.9918 14.5799C23.0079 14.636 23.0156 14.6958 23.0145 14.7559C23.0134 14.816 23.0035 14.8753 22.9854 14.9302C22.9673 14.9852 22.9413 15.0348 22.9089 15.0762C22.8765 15.1177 22.8384 15.1501 22.7967 15.1717L14.3729 19.5434C14.3313 19.5653 14.287 19.5758 14.2425 19.5743C14.1979 19.5729 14.154 19.5596 14.1133 19.5352C14.0726 19.5108 14.0359 19.4757 14.0053 19.4321C13.9747 19.3884 13.9509 19.3371 13.9352 19.2809C13.9186 19.2252 13.9104 19.1655 13.9112 19.1054C13.9119 19.0453 13.9215 18.986 13.9395 18.931C13.9575 18.876 13.9834 18.8263 14.0158 18.7849C14.0482 18.7435 14.0864 18.7113 14.1281 18.6899L22.5508 14.3182C22.5925 14.2964 22.6369 14.2858 22.6816 14.2872C22.7263 14.2885 22.7704 14.3016 22.8113 14.3259C22.8522 14.3501 22.8891 14.385 22.92 14.4284C22.9509 14.4719 22.9751 14.5231 22.9913 14.5792" fill="#78111F"/>
<path d="M20.1279 18.2191C20.1959 18.4561 20.1541 18.6961 20.0331 18.7591L14.2819 21.7426C14.1615 21.8041 14.0099 21.6631 13.943 21.4276C13.8761 21.1906 13.9179 20.9506 14.0377 20.8898L19.79 17.9048C19.9088 17.8433 20.0621 17.9828 20.1279 18.2198" fill="#78111F"/>
</svg>
