<svg width="13" height="20" viewBox="0 0 13 20" fill="none" xmlns="http://www.w3.org/2000/svg">
<path d="M6.00009 18C7.06095 18 8.07837 17.5786 8.82851 16.8284C9.57866 16.0783 10.0001 15.0609 10.0001 14C10.0001 12.9391 9.57866 11.9217 8.82851 11.1716C8.07837 10.4214 7.06095 10 6.00009 10C4.93922 10 3.9218 10.4214 3.17166 11.1716C2.42151 11.9217 2.00009 12.9391 2.00009 14C2.00009 15.0609 2.42151 16.0783 3.17166 16.8284C3.9218 17.5786 4.93922 18 6.00009 18V18ZM2.00009 9.528V4C2.00009 2.93913 2.42151 1.92172 3.17166 1.17157C3.9218 0.421427 4.93922 0 6.00009 0C7.06095 0 8.07837 0.421427 8.82851 1.17157C9.57866 1.92172 10.0001 2.93913 10.0001 4V5C10.0001 5.26522 9.89473 5.51957 9.70719 5.70711C9.51966 5.89464 9.2653 6 9.00009 6C8.73487 6 8.48052 5.89464 8.29298 5.70711C8.10544 5.51957 8.00009 5.26522 8.00009 5V4C8.00009 3.46957 7.78937 2.96086 7.4143 2.58579C7.03923 2.21071 6.53052 2 6.00009 2C5.46965 2 4.96095 2.21071 4.58587 2.58579C4.2108 2.96086 4.00009 3.46957 4.00009 4V8.341C5.40483 7.84368 6.94438 7.88691 8.31901 8.46226C9.69364 9.0376 10.805 10.1039 11.4367 11.4536C12.0684 12.8032 12.1752 14.3397 11.7364 15.7638C11.2976 17.1879 10.3446 18.3978 9.06283 19.1578C7.78107 19.9179 6.26232 20.1738 4.80226 19.8758C3.3422 19.5777 2.0453 18.7469 1.16405 17.5452C0.282806 16.3436 -0.119732 14.8569 0.0348064 13.3748C0.189344 11.8926 0.889898 10.521 2.00009 9.527V9.528ZM6.00009 16C5.46965 16 4.96095 15.7893 4.58587 15.4142C4.2108 15.0391 4.00009 14.5304 4.00009 14C4.00009 13.4696 4.2108 12.9609 4.58587 12.5858C4.96095 12.2107 5.46965 12 6.00009 12C6.53052 12 7.03923 12.2107 7.4143 12.5858C7.78937 12.9609 8.00009 13.4696 8.00009 14C8.00009 14.5304 7.78937 15.0391 7.4143 15.4142C7.03923 15.7893 6.53052 16 6.00009 16Z" fill="white"/>
</svg>
