<svg width="32" height="25" viewBox="0 0 32 25" fill="none" xmlns="http://www.w3.org/2000/svg">
<path d="M30.4 0.010534C30.2637 -0.00351133 30.1263 -0.00351133 29.99 0.010534H1.98996C1.8105 0.0132991 1.63224 0.0402073 1.45996 0.0905339L15.91 14.4805L30.4 0.010534Z" fill="#40916C"/>
<path d="M31.88 1.40054L17.32 15.9005C16.9453 16.273 16.4384 16.4821 15.91 16.4821C15.3816 16.4821 14.8747 16.273 14.5 15.9005L0.0700001 1.51054C0.0256394 1.67358 0.00211869 1.84159 0 2.01054V22.0105C0 22.541 0.210714 23.0497 0.585786 23.4248C0.960859 23.7998 1.46957 24.0105 2 24.0105H30C30.5304 24.0105 31.0391 23.7998 31.4142 23.4248C31.7893 23.0497 32 22.541 32 22.0105V2.01054C31.992 1.8022 31.9516 1.59638 31.88 1.40054V1.40054ZM3.37 22.0105H1.98V20.5805L9.25 13.3705L10.66 14.7805L3.37 22.0105ZM29.98 22.0105H28.58L21.29 14.7805L22.7 13.3705L29.97 20.5805L29.98 22.0105Z" fill="#40916C"/>
</svg>
