<svg width="32" height="24" viewBox="0 0 32 24" fill="none" xmlns="http://www.w3.org/2000/svg">
<path d="M31.88 0.400543L17.32 14.9005C16.9453 15.273 16.4384 15.4821 15.91 15.4821C15.3816 15.4821 14.8747 15.273 14.5 14.9005L0.0700001 0.510543C0.0256394 0.673584 0.00211869 0.841589 0 1.01054V21.0105C0 21.541 0.210714 22.0497 0.585786 22.4248C0.960859 22.7998 1.46957 23.0105 2 23.0105H30C30.5304 23.0105 31.0391 22.7998 31.4142 22.4248C31.7893 22.0497 32 21.541 32 21.0105V1.01054C31.992 0.802198 31.9516 0.596379 31.88 0.400543V0.400543ZM3.37 21.0105H1.98V19.5805L9.25 12.3705L10.66 13.7805L3.37 21.0105ZM29.98 21.0105H28.58L21.29 13.7805L22.7 12.3705L29.97 19.5805L29.98 21.0105Z" fill="#40916C"/>
</svg>
